<?xml version="1.0" encoding="iso-8859-1"?>
<!-- Generator: Adobe Illustrator 19.1.0, SVG Export Plug-In . SVG Version: 6.00 Build 0)  -->
<svg xmlns="http://www.w3.org/2000/svg" xmlns:xlink="http://www.w3.org/1999/xlink" version="1.1" id="Capa_1" x="0px" y="0px" viewBox="0 0 313.585 313.585" style="enable-background:new 0 0 313.585 313.585;" xml:space="preserve" width="512px" height="512px">
<g>
	<path d="M260.287,69.487c3.541,0,6.427,2.879,6.427,6.427v26.511v12.854h12.854h14.737c3.541,0,6.427,2.879,6.427,6.427v70.168   c0,3.541-2.886,6.427-6.427,6.427h-14.737h-12.854v12.854v26.511c0,3.541-2.886,6.427-6.427,6.427H19.281   c-3.554,0-6.427-2.886-6.427-6.427V75.914c0-3.548,2.873-6.427,6.427-6.427H260.287 M260.287,56.633H19.281   C8.631,56.633,0,65.271,0,75.914v161.757c0,10.636,8.631,19.281,19.281,19.281h241.006c10.636,0,19.281-8.644,19.281-19.281V211.16   h14.737c10.636,0,19.28-8.644,19.28-19.281v-70.175c0-10.643-8.644-19.281-19.28-19.281h-14.737V75.914   C279.567,65.271,270.93,56.633,260.287,56.633L260.287,56.633z M44.454,99.475H78.69v114.616H44.454   C44.454,214.091,44.454,99.475,44.454,99.475z M96.422,99.475h34.236v114.616H96.422V99.475z" fill="#61c352"/>
</g>
<g>
</g>
<g>
</g>
<g>
</g>
<g>
</g>
<g>
</g>
<g>
</g>
<g>
</g>
<g>
</g>
<g>
</g>
<g>
</g>
<g>
</g>
<g>
</g>
<g>
</g>
<g>
</g>
<g>
</g>
</svg>
