<svg xmlns="http://www.w3.org/2000/svg" viewBox="0 0 313.585 313.585" style="enable-background:new 0 0 313.585 313.585" xml:space="preserve" width="512" height="512"><path d="M260.287 69.487a6.433 6.433 0 0 1 6.427 6.427V115.279h27.591a6.433 6.433 0 0 1 6.427 6.427v70.168c0 3.541-2.886 6.427-6.427 6.427h-27.591V237.666c0 3.541-2.886 6.427-6.427 6.427H19.281a6.43 6.43 0 0 1-6.427-6.427V75.914a6.425 6.425 0 0 1 6.427-6.427h241.006m0-12.854H19.281C8.631 56.633 0 65.271 0 75.914v161.757c0 10.636 8.631 19.281 19.281 19.281h241.006c10.636 0 19.281-8.644 19.281-19.281V211.16h14.737c10.636 0 19.28-8.644 19.28-19.281v-70.175c0-10.643-8.644-19.281-19.28-19.281h-14.737V75.914c-.001-10.643-8.638-19.281-19.281-19.281zM44.454 99.475H78.69v114.616H44.454V99.475zm51.968 0h34.236v114.616H96.422V99.475z" fill="#61c352"/></svg>