<svg xmlns="http://www.w3.org/2000/svg" width="512" height="512"><g fill="#feb43a"><path d="M304 96c0-8.837-7.163-16-16-16H128c-8.837 0-16 7.163-16 16v128c0 8.837 7.163 16 16 16h160c8.837 0 16-7.163 16-16V96zm-32 112H144v-96h128v96z"/><path d="m487.538 113.453-63.809-32c-7.922-3.969-17.42-.742-21.373 7.156-3.953 7.906-.702 17.516 7.204 21.469l24.301 12.139c-.65 1.74-1.491 3.58-1.491 5.549 0 20.832 15.63 38.426 31.63 45.051v194.949c0 8.82-7.18 16-16 16s-16-7.18-16-16v-128c0-38.631-32-70.949-64-78.383V63.766C368 28.477 340.053 0 304.764 0h-192C77.475 0 48 28.477 48 63.766v358.109l-23.156 11.578A15.998 15.998 0 0 0 16 447.766v48C16 504.602 23.928 512 32.764 512h352C393.6 512 400 504.602 400 495.766v-48a15.998 15.998 0 0 0-8.844-14.313L368 421.875v-227.16c16 6.625 32 24.219 32 45.051v128c0 26.469 21.531 48 48 48s48-21.531 48-48v-240c0-6.063-3.04-11.602-8.462-14.313zM368 480H48v-22.344l23.156-11.578A15.998 15.998 0 0 0 80 431.765v-368C80 46.117 95.115 32 112.764 32h192C322.412 32 336 46.117 336 63.766v368a15.998 15.998 0 0 0 8.844 14.313L368 457.656V480z"/></g></svg>