<svg xmlns="http://www.w3.org/2000/svg" viewBox="0 0 211.399 211.399" style="enable-background:new 0 0 211.399 211.399" xml:space="preserve" width="512" height="512"><g fill="#86c662"><path d="M182.327 44.824c-16.482-12.068-37.005-19.272-54.9-19.272-18.011 0-31.322 7.262-39.563 21.583-6.457 11.221-9.597 26.52-9.597 46.771 0 20.25 3.139 35.549 9.597 46.771 8.242 14.321 21.553 21.583 39.563 21.583 17.895 0 38.418-7.205 54.9-19.273 18.748-13.727 29.072-31.158 29.072-49.081 0-17.925-10.325-35.356-29.072-49.082zm-8.862 86.059c-13.795 10.101-31.437 16.376-46.039 16.376-15.904 0-34.16-6.064-34.16-53.354 0-47.289 18.256-53.354 34.16-53.354 14.603 0 32.244 6.275 46.039 16.375 14.575 10.671 22.934 24.149 22.934 36.979 0 12.829-8.359 26.307-22.934 36.978zM60.703 33.943 4.148 62.22A7.499 7.499 0 0 0 .794 72.282a7.499 7.499 0 0 0 10.062 3.353l56.556-28.277a7.5 7.5 0 0 0 3.354-10.062 7.498 7.498 0 0 0-10.063-3.353zM60.703 61.297 4.148 89.575A7.499 7.499 0 0 0 .794 99.637a7.499 7.499 0 0 0 10.062 3.354l56.556-28.278a7.499 7.499 0 0 0 3.354-10.062 7.499 7.499 0 0 0-10.063-3.354zM60.703 88.651 4.148 116.928A7.499 7.499 0 0 0 .794 126.99a7.499 7.499 0 0 0 10.062 3.354l56.556-28.277a7.499 7.499 0 0 0 3.354-10.062 7.5 7.5 0 0 0-10.063-3.354zM60.703 116.005 4.148 144.284a7.499 7.499 0 0 0-3.354 10.062 7.499 7.499 0 0 0 10.062 3.354l56.556-28.278a7.499 7.499 0 0 0 3.354-10.062 7.5 7.5 0 0 0-10.063-3.355zM60.703 143.36 4.148 171.638A7.499 7.499 0 0 0 .794 181.7a7.499 7.499 0 0 0 10.062 3.354l56.556-28.278a7.499 7.499 0 0 0 3.354-10.062 7.5 7.5 0 0 0-10.063-3.354z"/></g></svg>