<svg xmlns="http://www.w3.org/2000/svg" viewBox="0 0 233.393 233.393" style="enable-background:new 0 0 233.393 233.393" xml:space="preserve" width="512" height="512"><path d="M225.893 9.932H7.5a7.5 7.5 0 0 0-7.5 7.5v141.343a7.5 7.5 0 0 0 7.5 7.5h46.803c-5.942 17.736-9.157 37.867 10.742 55.324a7.473 7.473 0 0 0 4.943 1.862 7.5 7.5 0 0 0 4.95-13.138c-14.063-12.336-11.571-25.155-4.728-44.047h43.494c-5.943 17.737-9.157 37.867 10.742 55.324a7.473 7.473 0 0 0 4.943 1.862 7.5 7.5 0 0 0 4.95-13.138c-14.064-12.336-11.571-25.155-4.728-44.047h43.497c-5.943 17.737-9.157 37.867 10.743 55.324a7.469 7.469 0 0 0 4.942 1.862 7.5 7.5 0 0 0 4.949-13.138c-14.064-12.336-11.571-25.155-4.728-44.047h36.878a7.5 7.5 0 0 0 7.5-7.5V17.432a7.499 7.499 0 0 0-7.499-7.5zm-7.5 141.343h-23.92c5.075-15.143 8.157-32.032-3.435-47.51l8.201-6.882a5.002 5.002 0 0 0 1.767-4.275 5.004 5.004 0 0 0-2.497-3.895l-45.855-26.235a5 5 0 0 0-7.188 6.032l17.874 49.713a5 5 0 0 0 7.919 2.138l8.264-6.934c7.433 10.551 4.753 22.085-.957 37.848H135.07c5.076-15.143 8.158-32.032-3.434-47.511l8.2-6.881a5.002 5.002 0 0 0 1.767-4.275 5.004 5.004 0 0 0-2.497-3.895L93.252 62.478a5 5 0 0 0-7.188 6.031l17.873 49.713a5.003 5.003 0 0 0 4.705 3.309 4.997 4.997 0 0 0 3.214-1.17l8.265-6.934c7.433 10.55 4.753 22.085-.958 37.848H75.668c5.075-15.143 8.157-32.032-3.435-47.511l8.2-6.881a5.002 5.002 0 0 0 1.767-4.275 5.004 5.004 0 0 0-2.497-3.895L33.851 62.478a5 5 0 0 0-7.188 6.031l17.873 49.713a5.003 5.003 0 0 0 4.705 3.309 4.997 4.997 0 0 0 3.214-1.17l8.264-6.934c7.433 10.551 4.753 22.085-.957 37.848H15V24.932h203.393v126.343z" fill="#feb039"/></svg>