<?xml version="1.0" encoding="iso-8859-1"?>
<!-- Generator: Adobe Illustrator 19.0.0, SVG Export Plug-In . SVG Version: 6.00 Build 0)  -->
<svg xmlns="http://www.w3.org/2000/svg" xmlns:xlink="http://www.w3.org/1999/xlink" version="1.1" id="Layer_1" x="0px" y="0px" viewBox="0 0 512 512" style="enable-background:new 0 0 512 512;" xml:space="preserve" width="512px" height="512px">
<g transform="translate(1 1)">
	<g>
		<path d="M487.607,354.752c-28.968-11.945-59.352-21.66-90.465-29.092c-4.578-56.696-27.984-107.728-64.206-138.444l72.574-72.574    c1.766-1.766,2.648-3.531,2.648-6.179c0-2.648-0.883-4.414-2.648-6.179l-24.717-24.717c-3.531-3.531-8.828-3.531-12.359,0    l-76.77,77.048c-0.623-2.362-0.913-4.835-0.913-7.31v-15.007c21.186-12.359,35.31-35.31,35.31-60.91    c0-0.296-0.019-0.588-0.023-0.883c0.004-0.295,0.023-0.587,0.023-0.883C326.062,30.779,294.283-1,255.441-1    s-70.621,31.779-70.621,70.621c0,0.296,0.019,0.588,0.023,0.883c-0.004,0.295-0.023,0.587-0.023,0.883    c0,24.717,14.124,48.552,35.31,60.91v15.007c0,9.71-6.179,19.421-15.89,23.835c-49.648,24.824-84.352,84.51-89.63,153.302    c-32.473,7.792-63.434,18.402-92.218,31.195c-2.648,0.883-5.297,3.531-5.297,7.062c0,3.531,0.883,6.179,3.531,7.945l35.31,23.834    c2.648,1.766,5.297,1.766,7.945,0.883c17.334-5.778,34.1-10.839,50.441-15.19c1.171,49.677,10.732,94.224,27.241,126.418    c1.766,2.648,4.414,4.414,7.945,4.414h44.138c2.648,0,7.062-1.766,7.945-4.414c0.883-2.648,1.766-6.179,0-8.828    c-10.593-20.303-15.89-49.435-16.772-85.628c45.903-8.828,96.221-8.828,141.241,0c-0.883,36.193-6.179,65.324-16.772,85.628    c-1.766,2.648-1.766,6.179,0,8.828c1.766,2.648,5.297,4.414,7.945,4.414h44.138c3.531,0,6.179-1.766,7.062-4.414    c16.544-32.261,26.112-76.925,27.25-126.727c16.626,4.42,33.68,9.584,51.315,15.5c0.883,0.883,1.766,0.883,2.648,0.883    c1.766,0,3.531-0.883,4.414-2.648l35.31-23.834c2.648-1.766,3.531-4.414,3.531-7.945    C492.903,359.166,490.255,355.634,487.607,354.752z M378.145,321.207c-36.2-7.542-73.043-11.85-109.43-12.949    c-18.63-0.653-37.192-0.495-55.553,0.498l107.604-107.604C352.545,227.634,373.731,271.772,378.145,321.207z M232.635,117.389    c-0.048-0.033-0.097-0.068-0.145-0.1c-0.976-0.465-1.928-0.962-2.864-1.48c-14.668-8.254-25.073-23.28-26.872-40.768    c-0.004-0.038-0.006-0.076-0.01-0.114c-0.076-0.754-0.131-1.513-0.174-2.275c-0.011-0.197-0.022-0.393-0.031-0.59    c-0.037-0.81-0.062-1.623-0.062-2.442c0-29.131,23.834-52.966,52.966-52.966s52.966,23.835,52.083,52.966    c0,20.303-11.476,38.841-30.014,47.669c-0.821,0.411-1.537,0.874-2.168,1.38c-6.153,2.516-12.87,3.916-19.901,3.916    C247.288,122.586,239.551,120.717,232.635,117.389z M212.186,185.262c15.89-7.945,25.6-22.952,25.6-39.724v-7.547    c5.648,1.468,11.564,2.25,17.655,2.25c5.776,0,11.39-0.718,16.772-2.042v7.339c0,7.062,2.648,15.007,6.179,21.186L133.621,311.497    C141.566,254.117,171.579,205.565,212.186,185.262z M356.076,493.345h-25.6c8.828-22.952,13.241-52.966,13.241-88.276    c0-4.414-2.648-7.945-7.062-8.828c-51.2-11.476-110.345-11.476-162.428,0c-4.414,0.883-7.062,4.414-7.062,8.828    c0,35.31,4.414,65.324,13.241,88.276h-25.6c-14.124-30.014-22.069-70.621-22.952-116.524c3.531-0.883,6.179-1.766,9.71-2.648    c76.8-16.772,145.655-16.772,221.572-0.883c5.297,0.883,10.593,2.648,15.89,3.531C378.145,422.724,370.2,463.331,356.076,493.345z     M448.766,377.703c-62.583-20.467-118.146-31.8-172.949-34.016c-45.599-2.074-90.511,2.129-138.665,12.83    c-5.297,1.766-11.476,2.648-16.772,4.414c-0.143,0.072-0.282,0.147-0.422,0.222C101.532,365.774,82.611,371.29,63,377.703    l-18.538-12.359c24.733-10.718,52.545-19.124,80.561-25.221c0.218,0.124,0.435,0.287,0.653,0.504    c0.883-0.883,1.766-0.883,2.648-0.883c0.185-0.185,0.371-0.325,0.557-0.44c0.697-0.146,1.394-0.299,2.092-0.442    c1.766-0.883,3.531-1.766,4.414-2.648l160.662-159.779c0.86-0.86,1.506-1.825,1.96-2.843l76.606-76.606l12.359,12.359    l-204.8,204.8c-2.648,2.648-3.531,6.179-1.766,9.71c1.766,3.531,5.297,5.297,8.828,5.297c0.116-0.012,0.232-0.022,0.347-0.034    c0.179,0.009,0.357,0.034,0.536,0.034c38.26-3.669,77.764-3.915,116.851-0.368c22.898,2.169,45.705,5.608,68.22,10.279    c3.647,0.781,7.282,1.593,10.902,2.448c0.138,0,0.25,0,0.351,0c27.267,6.179,54.053,14.145,79.98,23.835L448.766,377.703z" fill="#ee2e28"/>
	</g>
</g>
<g>
</g>
<g>
</g>
<g>
</g>
<g>
</g>
<g>
</g>
<g>
</g>
<g>
</g>
<g>
</g>
<g>
</g>
<g>
</g>
<g>
</g>
<g>
</g>
<g>
</g>
<g>
</g>
<g>
</g>
</svg>
